<svg width="100%" height="100%" viewBox="0 0 215 206" version="1.1" xmlns="http://www.w3.org/2000/svg" style="fill-rule:evenodd;clip-rule:evenodd;stroke-linejoin:round;stroke-miterlimit:2;">
    <path d="M72.774,186.44l-0,19l-72.774,-0l0,-127.313l19,0l0,108.313l53.774,-0Z" style="fill:rgb(240,62,48);fill-rule:nonzero;"/>
    <path d="M32,47.127l-30.703,0l47.25,-47.127l47.25,47.127l-30.703,0l0,98.284l39.68,-0l-0,28.029l-72.774,-0l0,-126.313Z" style="fill:rgb(240,62,48);"/>
    <rect x="78.527" y="60.077" width="18.816" height="72.384" style="fill:rgb(240,62,48);fill-rule:nonzero;"/>
    <path d="M151.639,76.013l-22.656,0l-0,12.096l20.64,0l-0,15.936l-20.64,0l-0,28.416l-18.816,0l-0,-72.384l41.472,0l-0,15.936Z" style="fill:rgb(240,62,48);fill-rule:nonzero;"/>
    <path d="M199.527,76.013l-0,56.448l-18.816,0l-0,-56.448l-15.456,0l-0,-15.936l49.728,0l-0,15.936l-15.456,0Z" style="fill:rgb(240,62,48);fill-rule:nonzero;"/>
</svg>
